<?xml version="1.0" encoding="UTF-8" standalone="no"?>
<svg width="62px" height="62px" viewBox="0 0 62 62" version="1.1" xmlns="http://www.w3.org/2000/svg" xmlns:xlink="http://www.w3.org/1999/xlink" xmlns:sketch="http://www.bohemiancoding.com/sketch/ns">
    <!-- Generator: Sketch 3.3.3 (12081) - http://www.bohemiancoding.com/sketch -->
    <title>Fill 9 + Fill 10</title>
    <desc>Created with Sketch.</desc>
    <defs></defs>
    <g id="Page-1" stroke="none" stroke-width="1" fill="none" fill-rule="evenodd" sketch:type="MSPage">
        <g id="Desktop-HD" sketch:type="MSArtboardGroup" transform="translate(-603.000000, -280.000000)">
            <g id="Fill-9-+-Fill-10" sketch:type="MSLayerGroup" transform="translate(603.000000, 280.000000)">
                <path d="M30.789,0.539 C47.496,0.539 61.039,14.082 61.039,30.789 C61.039,47.496 47.496,61.039 30.789,61.039 C14.082,61.039 0.539,47.496 0.539,30.789 C0.539,14.082 14.082,0.539 30.789,0.539" id="Fill-9" fill="#5AB1FF" sketch:type="MSShapeGroup"></path>
                <path d="M46.471,17.652 C46.475,17.568 46.482,17.48 46.49,17.393 C46.533,16.961 46.589,16.518 46.298,16.205 L46.304,16.197 C46.274,16.164 46.244,16.137 46.214,16.109 L46.207,16.117 C46.182,16.09 46.152,16.06 46.121,16.037 L46.115,16.047 C45.792,15.766 45.351,15.836 44.921,15.893 C44.835,15.904 44.748,15.916 44.662,15.924 C43.904,16.063 43.025,15.109 42.176,15.605 C42.005,15.705 41.835,15.863 41.669,16.1 C41.328,16.647 41.337,17.16 41.435,17.635 C41.47,17.795 41.513,17.947 41.557,18.098 C41.71,18.658 41.815,19.213 42.061,19.66 C41.355,20.297 40.751,21.023 40.078,21.66 C39.558,22.154 38.992,22.59 38.309,22.879 C37.57,23.17 36.815,23.32 36.055,23.422 C35.876,23.01 35.689,22.596 35.505,22.18 C35.988,21.131 36.357,19.908 35.387,18.967 C35.138,18.797 34.889,18.656 34.643,18.514 C34.521,18.445 34.398,18.373 34.279,18.303 C33.082,17.42 32.011,16.6 30.764,16.471 L30.762,16.471 C29.514,16.6 28.44,17.42 27.244,18.303 C27.126,18.375 27.005,18.445 26.883,18.514 C26.637,18.656 26.388,18.797 26.139,18.967 C25.089,19.984 25.603,21.326 26.137,22.426 C25.976,22.791 25.812,23.152 25.656,23.512 L25.654,23.437 C24.848,23.338 24.051,23.184 23.271,22.879 C22.585,22.588 22.022,22.152 21.498,21.658 C20.828,21.023 20.224,20.297 19.519,19.658 C19.764,19.213 19.869,18.658 20.023,18.098 C20.065,17.947 20.107,17.795 20.143,17.635 C20.24,17.16 20.251,16.647 19.91,16.1 C19.742,15.863 19.572,15.705 19.402,15.605 C18.552,15.109 17.674,16.063 16.914,15.924 C16.83,15.918 16.744,15.904 16.658,15.893 C16.228,15.836 15.785,15.766 15.464,16.045 L15.455,16.037 C15.426,16.06 15.398,16.09 15.371,16.117 L15.363,16.109 C15.332,16.137 15.305,16.164 15.274,16.197 L15.281,16.205 C14.99,16.518 15.044,16.961 15.087,17.393 C15.097,17.478 15.104,17.566 15.107,17.652 C15.222,18.414 14.236,19.26 14.703,20.129 C14.799,20.303 14.949,20.477 15.181,20.652 C15.716,21.01 16.228,21.02 16.705,20.937 C16.865,20.91 17.022,20.873 17.175,20.836 C17.589,20.736 17.998,20.662 18.369,20.539 C19.783,21.973 21.13,23.551 23.012,24.529 C23.346,24.703 23.691,24.852 24.056,24.971 C24.38,25.035 24.701,25.111 25.027,25.188 C24.692,26.309 24.576,27.44 24.964,28.629 C25.076,29.174 25.214,29.715 25.373,30.252 C25.457,30.531 25.549,30.807 25.646,31.084 C25.507,30.94 25.359,30.795 25.205,30.647 C23.47,29.168 20.789,27.109 18.521,28.881 C18.279,29.096 18.055,29.365 17.848,29.695 C17.686,29.984 17.603,30.283 17.582,30.586 C17.562,30.887 17.606,31.193 17.701,31.502 C17.796,31.81 17.937,32.119 18.115,32.426 C18.294,32.73 18.505,33.035 18.736,33.332 C18.969,33.629 19.219,33.918 19.477,34.199 C19.988,34.76 20.522,35.283 20.96,35.736 C21.412,36.191 21.883,36.635 22.363,37.065 C23.324,37.928 24.33,38.738 25.332,39.496 C25.101,39.533 24.835,39.672 24.652,39.721 C24.431,39.815 24.207,39.904 23.979,39.926 C23.753,39.992 23.529,40.059 23.306,40.125 C23.08,40.188 22.856,40.25 22.632,40.312 C22.182,40.438 21.731,40.559 21.273,40.68 C21.16,40.705 21.049,40.73 20.935,40.756 C20.808,40.773 20.679,40.785 20.549,40.789 C19.576,40.904 18.594,40.154 17.734,40.769 C17.144,41.197 17.414,41.889 17.481,42.559 C17.492,42.654 17.498,42.75 17.494,42.842 C17.494,42.949 17.481,43.055 17.453,43.158 C16.994,44.193 17.419,45.322 18.471,45.83 C18.623,45.935 18.765,46.053 18.891,46.178 C19.018,46.303 19.132,46.437 19.229,46.582 C19.279,46.654 19.324,46.728 19.367,46.805 C19.561,47.322 19.636,47.789 20.207,48.078 C21.016,48.33 21.641,47.752 22.193,47.303 C22.257,47.256 22.317,47.213 22.38,47.166 C23.246,46.537 24.111,45.978 25.113,45.522 C25.382,45.365 25.648,45.197 25.908,45.02 C26.169,44.844 26.425,44.656 26.667,44.463 C26.808,44.35 26.942,44.232 27.074,44.117 C27.751,43.711 28.19,43.152 28.41,42.533 C28.455,42.41 28.492,42.285 28.52,42.156 C28.933,40.728 27.974,39.545 27.337,38.543 C27.253,38.398 27.173,38.252 27.097,38.102 C26.667,37.482 26.507,36.48 26.923,35.912 L26.928,35.912 C26.928,35.912 28.524,37.012 30.755,37.045 L30.755,37.047 L30.802,37.047 L30.854,37.047 L30.854,37.043 C33.082,37.012 34.681,35.912 34.681,35.912 L34.687,35.912 C35.103,36.48 34.94,37.482 34.512,38.102 C34.437,38.252 34.356,38.398 34.272,38.543 C33.635,39.543 32.677,40.728 33.089,42.156 C33.115,42.283 33.152,42.41 33.195,42.533 C33.419,43.152 33.857,43.711 34.533,44.117 C34.664,44.232 34.802,44.348 34.941,44.463 C35.185,44.656 35.439,44.844 35.697,45.02 C35.957,45.195 36.226,45.365 36.492,45.522 C37.494,45.978 38.359,46.537 39.228,47.166 C39.287,47.211 39.351,47.256 39.412,47.303 C39.968,47.752 40.592,48.33 41.398,48.078 C41.973,47.787 42.048,47.32 42.24,46.805 C42.283,46.728 42.328,46.654 42.378,46.582 C42.479,46.435 42.591,46.301 42.719,46.178 C42.845,46.053 42.984,45.937 43.138,45.83 C44.19,45.322 44.611,44.191 44.156,43.156 C44.126,43.055 44.115,42.949 44.113,42.842 C44.111,42.75 44.117,42.654 44.128,42.557 C44.193,41.889 44.466,41.197 43.873,40.769 C43.017,40.152 42.033,40.902 41.062,40.789 C40.934,40.785 40.803,40.773 40.675,40.756 C40.563,40.73 40.447,40.705 40.335,40.68 C39.88,40.557 39.429,40.435 38.979,40.312 C38.755,40.25 38.529,40.188 38.306,40.123 C38.08,40.057 37.856,39.992 37.632,39.924 C37.402,39.902 37.18,39.815 36.957,39.721 C36.774,39.672 36.512,39.533 36.277,39.494 C37.279,38.738 38.285,37.928 39.246,37.065 C39.727,36.635 40.195,36.191 40.648,35.736 C41.087,35.283 41.621,34.76 42.134,34.199 C42.39,33.918 42.642,33.627 42.871,33.332 C43.104,33.035 43.315,32.73 43.492,32.426 C43.671,32.117 43.813,31.81 43.906,31.502 C44.001,31.193 44.046,30.887 44.024,30.584 C44.007,30.283 43.924,29.984 43.762,29.695 C43.555,29.363 43.328,29.094 43.089,28.881 C40.817,27.109 38.14,29.166 36.402,30.647 C36.324,30.721 36.255,30.795 36.18,30.869 C36.248,30.662 36.316,30.459 36.38,30.252 C36.542,29.715 36.679,29.172 36.789,28.629 C37.183,27.426 37.059,26.283 36.716,25.148 C36.984,25.086 37.257,25.022 37.525,24.971 C37.89,24.85 38.236,24.701 38.57,24.529 C40.451,23.551 41.798,21.971 43.212,20.537 C43.582,20.66 43.992,20.734 44.406,20.834 C44.56,20.871 44.717,20.91 44.876,20.935 C45.354,21.018 45.865,21.008 46.4,20.648 C46.632,20.475 46.783,20.299 46.878,20.127 C47.343,19.26 46.356,18.414 46.471,17.652" id="Fill-10" fill="#FFFFFF" sketch:type="MSShapeGroup"></path>
            </g>
        </g>
    </g>
</svg>